<?xml version="1.0" encoding="UTF-8"?>
<!DOCTYPE svg PUBLIC "-//W3C//DTD SVG 1.1//EN" "http://www.w3.org/Graphics/SVG/1.1/DTD/svg11.dtd">
<!-- Creator: CorelDRAW X8 -->
<svg xmlns="http://www.w3.org/2000/svg" xml:space="preserve" width="397px" height="225px" version="1.1" style="shape-rendering:geometricPrecision; text-rendering:geometricPrecision; image-rendering:optimizeQuality; fill-rule:evenodd; clip-rule:evenodd"
viewBox="0 0 397 225"
 xmlns:xlink="http://www.w3.org/1999/xlink">
 <defs>
  <style type="text/css">
   <![CDATA[
    .fil14 {fill:black}
    .fil19 {fill:#0C0A42}
    .fil12 {fill:#1F7299}
    .fil8 {fill:#3FD9B0}
    .fil2 {fill:#494949}
    .fil17 {fill:#4F4E73}
    .fil15 {fill:#7B5A43}
    .fil1 {fill:#909090}
    .fil16 {fill:#9392A5}
    .fil13 {fill:#9D704E}
    .fil6 {fill:#A595EE}
    .fil3 {fill:#B5B5B5}
    .fil5 {fill:#B5BBC6}
    .fil4 {fill:#CACFDA}
    .fil0 {fill:#D6D6D6}
    .fil9 {fill:#F0F1F5}
    .fil7 {fill:#F9CA55}
    .fil11 {fill:red}
    .fil10 {fill:#FF9933}
    .fil18 {fill:#0C0A42;fill-rule:nonzero}
    .fil20 {fill:white;fill-rule:nonzero}
   ]]>
  </style>
 </defs>
 <g id="Camada_x0020_1">
  <metadata id="CorelCorpID_0Corel-Layer"/>
  <g id="_2054653195168">
   <path class="fil0" d="M96 26c1,2 2,3 0,0zm3 5c1,0 3,0 4,0 8,0 17,0 25,0 4,0 10,0 13,0 12,2 12,11 12,20l0 68c0,6 1,11 -3,16 -5,5 -9,4 -15,4 -5,0 -9,0 -13,0 0,0 0,0 1,1 3,-1 7,-1 10,1 4,2 5,6 4,10 0,2 0,2 -1,4 -1,2 -2,3 -5,4 -4,1 -12,0 -16,0 -5,0 -10,0 -15,0 -1,0 -3,0 -4,0 0,0 0,0 0,0l-31 0c-1,0 -2,1 -3,1 0,0 -1,0 -1,-1l-49 0c-5,0 -9,-2 -11,-6 -1,-4 -1,-15 0,-19 1,-10 7,-19 15,-25 4,-3 9,-5 14,-6 1,-1 2,-1 4,-1 -2,-1 -4,-3 -5,-4 -1,-1 -2,-2 -2,-4 -2,-2 -5,-7 -5,-11 -1,-1 -2,-1 -3,-2 -1,-1 -2,-3 -3,-5 -2,-4 -4,-8 -4,-12 0,-5 0,-10 0,-15 -4,-3 -6,-7 -6,-12 0,-3 1,-6 3,-9 0,0 0,0 0,-1 0,-6 4,-11 9,-14 2,-5 8,-9 14,-9 1,0 2,0 3,0 3,-2 6,-4 10,-4 2,0 4,1 6,2 2,-1 4,-2 7,-2 3,0 7,1 9,4 1,-1 3,-1 4,-1 6,0 10,3 13,8 7,1 12,7 12,15 0,0 0,0 0,0z"/>
   <path class="fil1" d="M92 28c3,2 5,5 5,9 0,7 -5,12 -11,12 -7,0 -12,-5 -12,-12 0,0 0,-1 1,-2 -2,-1 -4,-3 -5,-6 -3,0 -6,-1 -8,-4 -1,1 -3,1 -4,1 -3,0 -5,0 -7,-2 -2,2 -4,2 -6,2 -2,0 -3,0 -4,0 -2,1 -4,3 -6,3 -1,3 -2,4 -3,6 0,1 0,2 0,2 0,7 -5,12 -11,12 -7,0 -12,-5 -12,-12 0,-3 2,-5 4,-8 -1,0 -1,-1 -1,-2 0,-5 4,-10 9,-11 1,-5 6,-9 11,-9 1,0 3,0 4,1 2,-3 5,-4 9,-4 2,0 4,0 6,2 2,-2 4,-2 7,-2 3,0 6,1 8,3 2,0 3,-1 5,-1 5,0 9,4 11,8 6,0 10,5 10,12 0,0 0,1 0,2zm-47 58c4,-1 6,4 11,2 3,-1 4,-3 8,-1 1,1 2,2 2,4 1,7 -11,9 -16,8 -3,-1 -5,-1 -6,-3 -4,-3 -4,-8 1,-10z"/>
   <g>
    <g>
     <path class="fil2" d="M47 65l10 45c3,0 71,0 75,0 7,0 6,0 6,-9 0,-17 0,-35 0,-51 0,-4 -2,-3 -5,-3l-82 0c-7,0 -2,4 -4,18z"/>
     <path class="fil3" d="M38 65l9 0c2,-14 -3,-18 4,-18l82 0c3,0 5,-1 5,3 0,16 0,34 0,51 0,9 1,9 -6,9 -4,0 -72,0 -75,0l0 9 90 0 0 -68c0,-6 1,-13 -6,-14 -3,0 -73,0 -75,0 -6,0 -16,0 -21,0 -4,1 -7,3 -7,7l0 21z"/>
     <path class="fil4" d="M55 133l21 0 33 0c8,0 17,0 26,0 5,0 8,0 10,-3 3,-2 2,-6 2,-11l-90 0 -2 14z"/>
     <path class="fil5" d="M63 146l59 0c-1,-1 -4,-1 -7,-3 -3,-2 -6,-6 -6,-10l-33 0c0,5 -5,10 -10,12 -1,0 -2,1 -3,1z"/>
     <path class="fil4" d="M62 153c10,0 28,0 38,0 5,0 10,0 15,0 3,0 13,0 15,0 0,-1 1,-2 1,-3 0,-2 0,-3 -1,-4 -1,0 -6,0 -8,0l-59 0 -1 0c0,4 0,0 0,7z"/>
     <path class="fil6" d="M67 53c-1,1 -2,2 -1,4 0,1 2,1 4,1 4,0 31,0 32,0 2,-1 2,-2 1,-4 0,-1 -2,-1 -4,-1 -5,0 -31,0 -32,0z"/>
     <path class="fil6" d="M83 81c-2,1 -2,3 0,4 1,0 21,0 22,0 1,-1 2,-4 -1,-4 0,-1 -21,-1 -21,0z"/>
     <path class="fil6" d="M83 99c-2,0 -2,3 -1,4 2,1 20,0 20,0 2,-1 2,-3 1,-4 -1,-1 -5,0 -7,0 -2,0 -12,-1 -13,0z"/>
     <path class="fil7" d="M72 63c-2,0 -3,2 -2,3 1,1 4,1 6,1 2,0 11,0 13,0 1,-1 2,-3 1,-4 -2,-1 -4,-1 -6,-1 -2,0 -11,0 -12,1z"/>
     <path class="fil7" d="M83 90c-2,0 -2,1 -2,3 1,1 2,1 4,1 1,0 7,0 8,0 2,-1 3,-4 -2,-4 -1,0 -7,-1 -8,0z"/>
     <path class="fil6" d="M78 72c-2,0 -3,4 2,4 2,0 8,0 9,0 1,-1 2,-2 1,-3 0,-1 -2,-2 -3,-2 -2,0 -8,0 -9,1z"/>
     <path class="fil8" d="M110 99c-2,1 -2,4 1,4 1,0 6,0 7,0 2,-1 2,-4 0,-4 -2,0 -7,-1 -8,0z"/>
     <path class="fil8" d="M110 72c-3,0 -3,4 0,4 1,0 7,0 8,0 2,-1 2,-4 -1,-4 -1,-1 -7,-1 -7,0z"/>
     <path class="fil8" d="M97 63c-3,0 -3,3 0,4 0,0 7,0 7,0 3,-1 2,-4 0,-5 -1,0 -7,0 -7,1z"/>
     <path class="fil9" d="M56 53c-4,1 -2,6 3,5 3,-1 2,-6 -3,-5z"/>
     <path class="fil8" d="M112 81c-1,0 -2,2 -1,3 1,1 4,1 5,1 1,-1 2,-3 1,-4 -1,-1 -4,-1 -5,0z"/>
     <path class="fil10" d="M95 72l8 0c1,0 2,0 2,2l0 0c0,1 -1,2 -2,2l-8 0c-1,0 -2,-1 -2,-2l0 0c0,-2 1,-2 2,-2z"/>
     <path class="fil10" d="M109 53l8 0c1,0 2,1 2,3l0 0c0,1 -1,2 -2,2l-8 0c-1,0 -2,-1 -2,-2l0 0c0,-2 1,-3 2,-3z"/>
     <path class="fil11" d="M101 90l8 0c1,0 2,1 2,2l0 0c0,1 -1,2 -2,2l-8 0c-1,0 -2,-1 -2,-2l0 0c0,-1 1,-2 2,-2z"/>
    </g>
    <g>
     <path class="fil12" d="M61 109c0,0 -1,6 -7,6 -7,0 -7,-6 -7,-6 -4,-1 -13,-1 -16,0 -4,1 -8,3 -11,5 -7,5 -12,12 -13,20 0,3 -1,14 0,16 1,2 2,3 5,3l84 0c1,0 3,0 4,-3 1,-2 1,-12 0,-15 0,-5 -2,-9 -4,-12 -1,-1 -1,-2 -2,-3l-2 -2c-3,-4 -9,-8 -15,-9 -3,-1 -13,-1 -16,0z"/>
     <path class="fil13" d="M28 55l0 23c0,3 2,9 4,11 1,2 1,2 2,3 3,4 9,8 13,8 6,2 7,2 14,0 2,0 5,-2 7,-3 5,-3 7,-6 9,-11 1,-1 3,-6 2,-8l1 -23c0,-9 -3,-16 -8,-18 -8,-4 -12,3 -13,4 -7,5 -12,-2 -13,-3 -3,-2 -7,-3 -10,-1 -6,2 -8,10 -8,18z"/>
     <path class="fil14" d="M28 59l0 21c0,3 2,8 4,11 1,1 1,1 2,2 3,3 9,7 13,8 6,1 7,1 14,0 2,-1 5,-2 7,-3 5,-3 7,-6 9,-10 1,-2 3,-6 2,-8l0 -21c1,-1 1,-3 0,-4 0,1 0,2 0,3 0,15 -11,28 -25,28 -14,0 -26,-13 -26,-28 0,-1 0,-2 0,-3 0,1 0,3 0,4z"/>
     <path class="fil14" d="M19 64c1,-4 0,-4 2,-7 2,-2 4,-2 7,-2 0,-8 2,-16 8,-18 3,-2 7,-1 10,1 1,1 6,8 13,3 1,-1 5,-8 13,-4 5,2 8,9 8,18 3,0 4,0 6,2 1,1 1,2 2,3 1,1 1,3 1,4 0,-17 1,-25 -6,-35 -5,-6 -12,-10 -19,-11 -2,-1 -3,-1 -5,-1l-5 0 -1 0c-7,0 -11,0 -17,3 -2,1 -4,2 -6,4 -13,10 -11,22 -11,40z"/>
     <path class="fil15" d="M47 109c0,0 0,6 7,6 6,0 7,-6 7,-6l0 -9c-7,2 -8,2 -14,0l0 9z"/>
     <path class="fil15" d="M79 78c2,0 3,-1 5,-2 0,0 2,-2 2,-3 1,-2 3,-6 3,-9 0,-1 0,-3 -1,-4 -1,-1 -1,-2 -2,-3 -2,-2 -3,-2 -6,-2l-1 23z"/>
     <path class="fil15" d="M19 64c0,3 1,7 2,9 1,1 2,2 3,3 1,1 2,2 4,2l0 -23c-3,0 -5,0 -7,2 -2,3 -1,3 -2,7z"/>
     <path class="fil15" d="M46 89c-2,1 -2,3 0,5 1,1 3,1 4,2 8,2 16,-4 12,-6 -2,-1 -3,0 -5,1 -6,2 -9,-2 -11,-2z"/>
     <path class="fil14" d="M21 29c4,0 8,4 8,8 0,5 -4,9 -8,9 -5,0 -8,-4 -8,-9 0,-4 3,-8 8,-8z"/>
     <path class="fil14" d="M24 19c4,0 8,4 8,8 0,5 -4,8 -8,8 -5,0 -8,-3 -8,-8 0,-4 3,-8 8,-8z"/>
     <path class="fil14" d="M32 10c5,0 8,4 8,8 0,5 -3,8 -8,8 -4,0 -8,-3 -8,-8 0,-4 4,-8 8,-8z"/>
     <path class="fil14" d="M45 7c4,0 8,3 8,8 0,4 -4,8 -8,8 -5,0 -9,-4 -9,-8 0,-5 4,-8 9,-8z"/>
     <path class="fil14" d="M58 7c4,0 8,3 8,8 0,4 -4,8 -8,8 -5,0 -8,-4 -8,-8 0,-5 3,-8 8,-8z"/>
     <path class="fil14" d="M71 10c4,0 8,3 8,8 0,4 -4,8 -8,8 -5,0 -8,-4 -8,-8 0,-5 3,-8 8,-8z"/>
     <path class="fil14" d="M81 17c5,0 8,4 8,9 0,4 -3,8 -8,8 -4,0 -8,-4 -8,-8 0,-5 4,-9 8,-9z"/>
     <path class="fil14" d="M86 29c4,0 8,4 8,8 0,5 -4,9 -8,9 -5,0 -8,-4 -8,-9 0,-4 3,-8 8,-8z"/>
    </g>
   </g>
   <g>
    <path class="fil0" d="M52 177l28 17c7,1 13,4 13,12 0,8 -9,19 -17,19 -6,0 -10,-3 -12,-7l-41 -27c-7,-4 -12,-8 -12,-17 0,-6 5,-10 9,-12 0,0 0,0 0,-1l43 -21c2,-6 7,-10 13,-10 1,0 2,0 3,1 7,1 15,9 15,15 0,9 -4,14 -13,15l-29 16z"/>
    <path class="fil16" d="M47 177l33 19c5,1 10,3 10,10 0,7 -7,16 -14,16 -5,0 -9,-2 -10,-6l-42 -26c-6,-5 -10,-8 -10,-16 0,-5 3,-8 7,-10 0,0 0,0 0,0l44 -23c1,-5 6,-9 11,-9 1,0 2,1 3,1 5,1 12,8 12,13 0,8 -3,12 -10,13l-34 18z"/>
    <path class="fil17" d="M42 177l37 22c4,0 9,1 9,7 0,5 -6,14 -12,14 -4,0 -7,-2 -8,-5l-42 -27c-6,-4 -10,-7 -10,-14 0,-4 3,-7 6,-8l45 -23c0,-5 5,-8 9,-8 1,0 1,0 2,0 5,1 11,7 11,11 0,7 -3,10 -9,11l-38 20z"/>
   </g>
   <path class="fil18" d="M38 176l41 -21c6,-1 8,-3 8,-9 0,-2 -5,-9 -11,-9 -4,0 -8,4 -7,7l-45 24c-3,1 -6,3 -6,6 0,4 2,7 9,12l43 27c0,3 2,5 6,5 4,0 10,-8 10,-12 0,-4 -3,-5 -8,-5l-40 -25z"/>
   <g>
    <path class="fil0" d="M372 163c0,0 0,0 0,0 3,0 6,2 8,4l11 6c0,0 0,0 0,0 4,2 6,5 6,9 0,4 -2,7 -6,10l-11 7c-2,2 -5,3 -8,3 -3,0 -6,-2 -8,-4 -2,3 -6,5 -10,5 -3,0 -6,-1 -8,-3 -2,2 -4,3 -7,3 -2,0 -4,-1 -5,-2 -2,1 -3,1 -5,1 -3,0 -5,0 -7,-2 -3,2 -6,3 -10,3 -3,0 -5,-1 -7,-2 -2,1 -4,2 -6,2 -2,0 -3,-1 -4,-1 -2,1 -4,1 -7,1 -3,0 -5,-1 -7,-3 -3,2 -5,3 -8,3 -4,0 -8,-3 -10,-6 -4,4 -10,6 -15,6 -3,0 -6,-1 -8,-2 -2,1 -4,1 -6,1 -2,0 -4,0 -5,-1 -2,1 -4,1 -5,1 -2,0 -4,0 -5,-1 -2,1 -4,1 -6,1 -1,0 -2,0 -3,0 -2,1 -3,1 -5,1 -5,0 -9,-3 -10,-7 -2,4 -6,7 -11,7 0,0 0,0 0,0 -4,0 -7,-2 -9,-5 -4,3 -8,5 -12,5 -3,0 -5,-1 -7,-3 -3,2 -6,3 -10,3 -3,0 -6,-1 -8,-3 -2,2 -4,3 -7,3 -3,0 -6,-1 -7,-3 -2,2 -5,3 -8,3 -5,0 -8,-3 -9,-7 -2,4 -5,7 -10,7 -3,0 -6,-2 -8,-4 -3,3 -7,4 -11,4 -5,0 -9,-2 -11,-6 -5,4 -11,6 -16,6 -6,0 -11,-4 -11,-10 0,-2 0,-3 1,-4l0 -24c-1,-1 -1,-2 -1,-3 0,-6 5,-10 11,-10 1,0 3,0 4,1 2,-1 4,-1 6,-1 7,0 13,6 16,12 1,0 4,-1 6,-1 2,0 4,1 6,1 2,0 3,-1 5,-1 2,0 4,1 5,2 1,-1 2,-1 3,-1 0,-1 0,-1 0,-1 0,-6 4,-11 10,-11 2,0 5,1 6,2 2,0 3,-1 5,-1 3,0 5,0 7,2 2,-2 4,-3 7,-3 6,0 11,4 11,10 0,0 0,1 0,1 1,0 2,0 3,0 1,0 1,0 2,0 0,0 0,-1 0,-2 0,-6 5,-9 11,-9 5,0 9,3 10,8 0,0 0,-1 1,-1 1,-4 6,-6 10,-6 2,0 3,0 4,1l4 -1c1,-1 2,-1 4,-1 5,0 10,5 10,11 0,0 0,0 0,1 1,0 1,0 2,0 1,0 3,-1 4,-1 0,0 0,0 0,-1 0,-6 4,-10 11,-10 1,0 3,0 4,1 2,-1 4,-1 6,-1 3,0 6,1 8,4 4,-3 7,-4 11,-4 5,0 10,3 13,6 2,-1 4,-2 7,-2 4,0 7,2 9,5 2,1 4,2 5,4 4,-2 7,-2 11,-2 3,0 6,1 8,4 3,-3 7,-4 10,-4 1,0 1,0 2,0 0,0 0,-1 0,-1 0,-6 5,-10 11,-10 6,0 10,4 10,9 5,1 9,4 10,9l2 -8c0,-6 5,-10 11,-10 5,0 10,4 10,10 0,0 0,1 0,1zm-25 15c0,1 -1,1 -2,2l-1 2 1 2c1,0 1,0 1,0l1 -6z"/>
    <path class="fil16" d="M368 167c1,-1 3,-2 4,-2 3,0 5,2 7,4l11 6c0,0 0,0 0,0 3,1 5,4 5,7 0,4 -2,6 -6,8l-11 7c-1,2 -3,3 -6,3 -4,0 -8,-5 -8,-9 0,-4 2,-6 6,-7l2 -1 -3 -1c-1,-1 -3,-2 -4,-3l-3 12c0,1 0,2 0,2 0,5 -4,8 -8,8 -3,0 -6,-2 -8,-4 -1,2 -4,3 -7,3 -2,0 -4,0 -5,-1 -1,1 -3,1 -5,1 -3,0 -5,-1 -7,-3 -3,3 -6,4 -10,4 -3,0 -5,-1 -7,-3 -2,2 -4,2 -6,2 -2,0 -3,0 -4,-1 -2,1 -4,2 -7,2 -3,0 -5,-1 -7,-4 -3,2 -5,4 -8,4 -5,0 -8,-4 -9,-8 -4,4 -10,8 -16,8 -3,0 -6,-1 -8,-3 -2,1 -4,2 -6,2 -2,0 -4,0 -5,-1 -2,1 -4,1 -5,1 -2,0 -4,0 -5,-1 -2,1 -4,1 -6,1 -1,0 -2,0 -3,0 -2,0 -3,1 -5,1 -5,0 -9,-5 -9,-10l0 -7c0,0 0,0 0,0 -1,0 -2,0 -2,0l-2 0 0 5c1,1 1,2 1,3 0,5 -4,8 -9,8 -4,0 -8,-2 -8,-6 -4,4 -8,7 -13,7 -3,0 -6,-1 -7,-4 -3,2 -6,4 -10,4 -3,0 -6,-2 -8,-4 -1,2 -4,4 -7,4 -4,0 -6,-2 -7,-5 -2,3 -5,4 -8,4 -6,0 -8,-5 -8,-10 0,-1 0,-2 0,-3 -1,2 -2,4 -3,7 -1,4 -4,6 -8,6 -3,0 -6,-1 -7,-4 0,0 0,0 0,0 -3,3 -7,5 -12,5 -5,0 -9,-3 -10,-7 -5,4 -11,7 -17,7 -5,0 -9,-3 -9,-8 0,-1 0,-3 1,-4l0 -25c0,0 0,-1 0,-2 0,-5 4,-8 8,-8 1,0 3,1 4,1 2,0 4,-1 6,-1 7,0 13,7 14,14 2,-2 5,-3 8,-3 2,0 4,1 6,2 2,-1 3,-1 5,-1 2,0 4,0 6,2 1,-1 2,-2 4,-3 0,0 0,-1 0,-2 0,-5 3,-8 8,-8 3,0 5,1 6,2 1,-1 3,-2 5,-2 4,0 6,1 7,3 1,-3 4,-4 7,-4 5,0 9,3 9,8 0,1 0,2 -1,2 0,1 0,2 0,3 2,-1 4,-2 6,-2 2,0 3,1 4,1l0 -1c0,-1 0,-2 0,-4 0,-4 4,-7 9,-7 4,0 8,3 8,8 0,0 0,1 -1,2l0 2c1,0 2,0 3,0 0,0 1,0 1,0 0,0 0,-1 0,-1 0,-2 1,-4 2,-5 1,-3 4,-5 8,-5 1,0 3,0 4,1l4 -1c1,0 2,-1 4,-1 4,0 8,4 8,8 0,2 0,3 -1,4 2,0 4,0 5,1 1,-1 3,-1 4,-1 1,0 2,0 3,0l0 -1c-1,-1 -1,-2 -1,-3 0,-5 3,-8 9,-8 2,0 3,1 4,1 2,0 4,-1 6,-1 3,0 6,2 8,5 3,-3 7,-5 11,-5 5,0 10,4 12,8 2,-2 5,-3 8,-3 3,0 6,1 7,4 3,1 5,3 6,5 1,0 1,0 1,0 3,-2 7,-3 11,-3 4,0 7,2 8,5 3,-3 7,-5 10,-5 2,0 3,1 5,1l0 -1c-1,-1 -1,-2 -1,-3 0,-5 4,-8 9,-8 5,0 8,3 8,8 0,1 0,1 0,2 0,0 1,0 2,0 4,0 8,3 8,8 0,2 -1,5 -3,6l-3 4 3 4c1,0 2,1 2,2 1,0 1,-1 1,-1l6 -25c0,-5 4,-8 9,-8 4,0 8,3 8,8 0,1 -1,3 -2,4l0 1zm-119 17c1,1 1,1 1,1 0,0 1,-1 1,-1 -1,0 -1,0 -2,0zm-190 -14l0 8c0,-2 0,-4 0,-6 0,0 0,-1 0,-2z"/>
    <path class="fil17" d="M323 170l0 -6c0,0 0,-1 0,-2 0,-4 2,-6 6,-6 3,0 6,2 6,6 0,1 0,1 -1,2l0 4c1,-1 3,-2 5,-2 3,0 6,2 6,6 0,2 -1,4 -3,4l-4 6 4 6c2,0 3,2 3,4 0,4 -3,6 -6,6 -2,0 -4,-1 -5,-3 -1,2 -3,3 -5,3 -4,0 -6,-2 -6,-5 -1,1 -1,1 -2,2 -2,2 -5,4 -9,4 -3,0 -6,-2 -7,-4 -1,2 -4,3 -6,3 -2,0 -3,0 -4,-1 -2,1 -4,2 -7,2 -3,0 -5,-2 -6,-5 -3,2 -6,4 -9,4 -4,0 -7,-3 -7,-7l0 -8c0,2 0,4 -2,6 -3,5 -10,9 -16,9 -4,0 -7,-1 -9,-3 -1,2 -3,3 -5,3 -2,0 -4,-1 -5,-2 -2,1 -3,2 -5,2 -2,0 -4,-1 -5,-2 -1,1 -4,2 -6,2 -1,0 -2,0 -3,-1 -2,1 -3,2 -5,2 -4,-1 -7,-4 -7,-8l0 -10c-1,1 -1,1 -2,1 -1,0 -2,0 -2,-1l-4 1 0 7c0,1 1,2 1,3 0,4 -4,6 -7,6 -4,0 -6,-2 -6,-6 0,-1 0,-2 1,-3l0 -3c-4,6 -10,12 -16,12 -3,0 -6,-1 -6,-4 0,0 0,0 -1,0 -2,3 -6,4 -10,4 -5,0 -8,-3 -9,-7 0,0 0,0 0,0 0,4 -1,7 -6,7 -5,0 -5,-3 -6,-7 0,-2 -1,-4 -1,-6 -1,3 -2,5 -2,7 0,4 -3,6 -6,6 -5,0 -6,-4 -6,-8 0,-3 0,-7 -1,-10 -1,1 -1,2 -2,3 -2,3 -3,7 -4,10 -1,3 -3,5 -6,5 -4,0 -6,-3 -6,-6 0,-1 0,-1 0,-1 -1,1 -2,2 -3,3 -2,3 -6,4 -10,4 -6,0 -9,-4 -9,-9 0,0 0,0 -1,0 -3,5 -11,9 -17,9 -3,0 -7,-1 -7,-5 0,-1 1,-2 1,-3l0 -26c0,-1 0,-1 0,-2 0,-3 3,-5 6,-5 1,0 3,0 4,1 2,-1 4,-1 6,-1 7,0 12,8 12,15 0,0 0,1 0,1 3,-3 6,-5 10,-5 2,0 5,0 6,2 1,-1 3,-2 5,-2 2,0 5,2 6,4 1,-2 2,-4 6,-4 0,0 0,0 0,0 0,-2 0,-3 0,-5 0,-3 3,-6 6,-6 3,0 6,2 6,5 0,1 -1,2 -1,3 0,1 1,3 1,4 0,-2 0,-4 0,-5 0,-4 2,-6 5,-6 5,-1 7,2 7,6 0,2 0,4 1,7 0,-3 0,-5 1,-7 -1,-1 -1,-1 -1,-2 0,-3 3,-6 6,-6 3,0 6,2 6,6 0,0 0,1 0,2 0,3 -1,6 -2,10 2,-4 6,-6 10,-6 3,0 5,1 7,2l0 -6c-1,-1 -1,-2 -1,-3 0,-3 4,-5 7,-5 3,0 5,2 5,6 0,0 0,1 0,2l0 5c2,-1 3,-1 5,-1 2,0 3,1 5,2l0 -2c-1,-1 -1,-2 -1,-3 0,-1 0,-3 1,-4 1,-2 3,-4 6,-4 1,0 3,1 3,1l6 -1c1,0 1,0 3,0 3,0 6,2 6,5 0,4 -2,7 -6,7 -1,0 -2,0 -3,0l-4 0 0 2 2 -1c2,0 3,-1 4,-1 1,0 2,1 3,1 1,-1 3,-2 5,-2 2,0 4,1 5,2 1,-1 2,-2 4,-2 2,0 4,1 5,2l0 -5c0,-1 0,-2 0,-3 0,-4 2,-6 6,-6 2,0 3,1 5,2 1,-1 2,-2 5,-2 3,0 6,3 6,6 0,1 0,2 0,2 3,-4 8,-7 13,-7 5,0 11,4 11,8 0,3 -1,4 -3,5 1,0 1,0 1,1 1,-2 3,-3 4,-3 0,-1 0,-1 0,-2 0,-4 3,-5 7,-5 3,0 5,1 5,5 0,0 0,0 0,0 1,0 1,0 2,0 2,0 5,2 5,5 0,0 0,1 0,1 0,-1 2,-2 3,-2 3,-2 6,-3 10,-3 4,0 7,4 7,8l0 1c0,-1 1,-2 1,-3 2,-3 7,-5 10,-5 3,0 5,0 7,2zm0 10c-1,0 -2,1 -4,1 -1,0 -2,-1 -3,-2 -1,0 -1,1 -1,1 -1,2 -2,4 -2,6 0,0 0,1 0,2 0,0 0,0 1,0 0,-1 1,-1 1,-2 0,-3 2,-5 5,-5 1,0 2,0 3,1l0 -2zm-84 0l0 3c1,0 2,-1 3,-1 -1,0 -2,-1 -3,-2zm-159 7c0,0 0,0 0,0 0,0 0,0 0,0 0,0 1,0 1,0 0,0 0,0 0,0 0,0 -1,0 -1,0zm68 0c0,0 0,0 0,0 0,0 0,0 0,0 0,0 1,0 1,0 0,0 0,0 0,0 0,0 -1,0 -1,0zm136 -12c-1,1 -2,2 -4,2 -1,0 -1,0 -2,0l0 0 0 5c1,-1 2,-2 3,-2 2,0 4,1 5,2 0,-1 0,-1 1,-2 -2,0 -3,-3 -3,-5 0,0 0,0 0,0zm-32 -7c-1,0 -3,2 -4,3 1,0 2,0 2,0 2,-1 3,-1 4,-1 -1,-1 -1,-2 -2,-2zm-7 15c2,0 3,2 3,5 0,0 0,0 0,0 3,-1 5,-3 7,-5 0,0 0,-2 0,-3 -1,1 -2,1 -3,1 -2,1 -4,2 -6,2 -1,0 -1,0 -1,0zm121 -18l-6 26c0,1 0,2 0,2 0,3 -3,6 -6,6 -4,0 -7,-3 -7,-6 0,-2 1,-4 2,-5l7 -26c-1,-3 2,-5 6,-5 3,0 5,1 5,5 0,1 0,2 -1,3zm4 21l6 -3 -6 -4c-3,0 -4,-2 -4,-5 0,-3 3,-6 6,-6 2,0 4,1 5,3l12 6c2,1 3,2 3,5 0,3 -1,4 -4,6l-11 7c-1,2 -3,3 -5,3 -3,0 -6,-4 -6,-7 0,-3 2,-4 4,-5zm-314 -18l0 18c2,-1 2,-2 3,-3 2,-4 3,-7 3,-11 0,-1 -1,-5 -2,-5 -1,0 -3,1 -4,1zm113 13l0 0c0,0 0,0 0,0 0,0 0,0 0,0z"/>
   </g>
   <path class="fil19" d="M285 186c2,-4 7,-7 11,-8l0 -2c0,0 0,-1 0,-1 -1,0 -3,1 -4,2 0,1 -1,2 -3,2 -2,0 -3,-2 -3,-4 0,-1 1,-3 3,-3 3,-2 6,-3 9,-3 3,0 4,3 4,6l0 16c1,1 1,1 1,2 0,2 -3,3 -4,3 -2,0 -4,-1 -4,-3 -2,2 -4,3 -7,3 -3,0 -5,-2 -5,-5 0,-1 1,-2 1,-3 -3,4 -8,8 -11,8 -3,0 -4,-2 -4,-5l0 -14 -1 0c0,0 -1,0 -1,0 0,0 0,0 0,0 -2,0 -3,-2 -3,-3 0,-2 1,-4 3,-4 0,0 1,0 1,1l1 -1 0 -2c0,-1 -1,-1 -1,-2 0,-2 3,-3 5,-3 1,0 3,1 3,3 0,0 0,1 -1,1l0 2 3 0c1,-1 1,-1 2,-1 1,0 2,1 2,3 0,2 0,4 -2,4 -1,0 -1,0 -1,0l-4 0 0 14c2,-1 3,-3 3,-4 1,-1 2,-3 3,-3 3,0 4,1 4,4 0,0 0,0 0,0zm-238 4l0 -26c0,-1 0,-1 0,-2 0,-2 2,-3 4,-3 1,0 2,0 3,1 2,-1 4,-1 7,-1 6,0 10,7 10,13 0,5 -1,11 -4,16 -4,4 -10,8 -16,8 -2,0 -4,-1 -4,-3 0,-1 0,-2 0,-3zm31 -5c0,1 0,2 0,2 0,1 0,3 1,3 1,0 4,-1 4,-3 0,-2 2,-3 4,-3 2,0 3,1 3,3 0,2 -2,5 -3,6 -3,2 -5,3 -9,3 -5,0 -7,-3 -7,-8 0,-7 4,-18 12,-18 4,0 7,3 7,7 0,6 -7,7 -11,8l-1 0zm12 -10c0,0 0,-1 0,-1 0,-2 2,-4 4,-4 2,0 3,1 3,3 0,1 0,1 0,2 0,2 0,5 1,7l0 1c0,-1 1,-2 1,-3 1,-2 2,-4 3,-7 0,-2 1,-3 4,-3 2,0 3,1 3,3 0,2 -3,7 -4,9 -2,4 -3,7 -4,11 -1,2 -2,3 -4,3 -2,0 -3,-2 -4,-4 0,-2 0,-5 -1,-6 0,-4 -2,-8 -2,-11zm27 4c1,-1 1,-3 2,-4 1,-4 2,-8 2,-11 0,-2 0,-4 3,-4 3,0 3,2 3,4 0,4 2,8 3,12 0,1 0,2 1,4 0,-3 1,-5 1,-7 1,-3 2,-6 2,-9 0,-1 0,-1 0,-2 0,-2 1,-3 3,-3 2,0 4,1 4,3 0,0 0,1 0,2 -1,3 -2,7 -3,11 -1,5 -3,10 -3,16 0,3 -1,5 -4,5 -3,0 -3,-2 -4,-5 0,-3 -1,-8 -2,-10 -1,-2 -1,-3 -1,-4 -1,2 -1,3 -1,5 -1,3 -3,7 -3,10 0,3 -2,4 -4,4 -3,0 -3,-4 -3,-6 0,-4 -1,-9 -2,-13 -1,-5 -3,-9 -3,-14 0,-2 2,-4 4,-4 2,0 3,2 3,3 0,1 0,2 0,3 0,3 1,6 1,10 1,1 1,3 1,4zm29 6c0,1 0,2 0,2 0,1 0,3 1,3 1,0 4,-1 4,-3 0,-2 2,-3 4,-3 2,0 3,1 3,3 0,2 -2,5 -3,6 -3,2 -5,3 -9,3 -5,0 -7,-3 -7,-8 0,-7 4,-18 12,-18 4,0 7,3 7,7 0,6 -7,7 -11,8l-1 0zm21 -22l0 10c2,-2 4,-3 7,-3 4,0 5,4 5,7 0,7 -9,19 -16,19 -2,0 -4,-1 -4,-3 0,-1 1,-2 1,-2l0 -27c0,-1 -1,-2 -1,-3 0,-2 3,-2 5,-2 2,0 3,0 3,3 0,0 0,1 0,1zm28 3l-7 1 0 7 5 -1c1,-1 2,-1 3,-1 2,0 3,2 3,3 0,3 -1,4 -3,4 -1,0 -2,0 -2,0l-6 1 0 10c0,1 0,1 0,2 0,3 -2,4 -4,4 -2,0 -4,-1 -4,-4 0,-1 0,-2 1,-3l0 -9c-1,0 -1,-1 -1,-2 0,-1 0,-2 1,-3l0 -7c-1,-1 -1,-2 -1,-3 0,-1 0,-2 1,-3 0,-1 2,-3 4,-3 1,0 2,1 3,2l6 -1c1,0 1,-1 3,-1 1,0 3,1 3,3 0,3 -1,5 -3,5 -1,0 -2,-1 -2,-1zm12 9l0 14c0,0 0,0 0,0 1,0 3,-2 3,-3l0 -12c0,0 0,0 0,-1 0,-2 2,-3 3,-3 3,0 4,1 4,4l0 17c0,0 0,1 0,2 0,2 -2,3 -4,3 -1,0 -2,-1 -3,-2 -1,1 -3,2 -5,2 -3,0 -5,-2 -5,-5l0 -16c0,-1 0,-1 0,-2 0,-2 2,-3 4,-3 2,0 3,1 3,3 0,1 0,1 0,2zm13 15l0 -26c0,0 0,-1 0,-2 0,-3 1,-3 4,-3 2,0 4,1 4,3 0,1 -1,2 -1,3l0 25c0,1 1,2 1,2 0,2 -3,4 -4,4 -2,0 -4,-2 -4,-4 0,-1 0,-1 0,-2zm10 0l0 -26c0,0 0,-1 0,-2 0,-3 1,-3 4,-3 2,0 4,1 4,3 0,1 -1,2 -1,3l0 25c0,1 1,2 1,2 0,2 -3,4 -4,4 -2,0 -4,-2 -4,-4 0,-1 0,-1 0,-2zm24 -24c0,-1 -1,-1 -2,-1 -3,0 -6,4 -6,7 0,1 0,2 1,2 1,0 3,-1 4,-1 2,-1 4,-1 6,-1 5,0 7,3 7,8 0,2 0,5 -2,8 -3,5 -9,8 -14,8 -5,0 -9,-3 -9,-8 0,-2 2,-4 4,-4 2,0 3,3 3,4 0,1 1,2 2,2 3,0 7,-3 8,-5 1,-2 1,-4 1,-5 0,-1 0,-2 -1,-2 -1,0 -3,1 -4,1 -2,1 -4,1 -6,1 -5,0 -7,-3 -7,-7 0,-7 7,-14 14,-14 4,0 8,3 8,6 0,2 -1,4 -3,4 -2,0 -4,-1 -4,-3zm63 21c0,-2 1,-4 3,-4 2,0 4,2 4,3 0,2 -3,6 -4,7 -2,2 -5,3 -8,3 -5,0 -8,-4 -8,-9 0,-5 1,-8 4,-12 2,-3 5,-5 8,-5 3,0 7,1 7,5 0,2 -1,3 -4,3 -1,0 -2,0 -2,-2 0,0 0,0 -1,0 -1,0 -2,2 -3,3 -1,2 -2,5 -2,7 0,2 0,4 2,4 1,0 1,0 2,-1 1,0 2,-1 2,-2zm15 -23l0 12c0,0 1,-1 1,-1l3 -4c0,-2 1,-3 3,-3 2,0 4,2 4,4 0,1 -1,2 -2,3l-5 7 5 8c1,0 2,1 2,2 0,3 -2,4 -4,4 -2,0 -3,-1 -3,-3l-4 -5c0,0 0,-1 0,-1l0 3c0,1 1,1 1,2 0,3 -2,4 -4,4 -3,0 -4,-2 -4,-4 0,-1 0,-2 0,-2l0 -26c0,-1 0,-1 0,-2 0,-2 1,-3 4,-3 2,0 3,1 3,3 0,1 0,1 0,2zm32 0l-7 27c1,1 1,2 1,2 0,2 -2,3 -4,3 -2,0 -4,-1 -4,-3 0,-2 0,-3 1,-3l7 -28c0,-2 1,-3 4,-3 1,0 3,1 3,3 0,1 0,2 -1,2zm7 24l10 -5 -10 -6c-2,0 -3,-1 -3,-3 0,-2 2,-4 4,-4 2,0 3,1 3,2l13 7c1,0 2,1 2,3 0,2 -1,3 -3,4l-12 8c0,1 -1,2 -3,2 -2,0 -4,-3 -4,-5 0,-2 2,-2 3,-3zm-317 -21l0 22c3,-1 6,-2 7,-5 2,-4 3,-7 3,-12 0,-2 -2,-7 -4,-7 -2,0 -4,1 -6,2zm25 12c2,0 5,-1 5,-1 0,-1 0,-2 -1,-2 -2,0 -3,2 -4,3zm69 0c1,0 4,-1 4,-1 0,-1 0,-2 -1,-2 -2,0 -3,2 -3,3zm19 1l0 8c3,-3 5,-7 5,-11 0,0 0,-1 0,-1 -2,0 -4,3 -5,4zm129 4c-3,1 -6,4 -6,6 0,0 0,0 0,0 2,0 6,-4 6,-6l0 0z"/>
   <path class="fil20" d="M48 193c0,1 1,2 3,2 4,0 11,-3 15,-8 3,-4 4,-10 4,-15 0,-6 -4,-12 -9,-12 -3,0 -6,1 -8,2 0,-1 0,-2 -2,-2 -2,0 -3,1 -3,2 0,1 0,1 1,2l0 27c-1,0 -1,1 -1,2zm5 -27c2,-1 4,-2 7,-2 3,0 5,4 5,8 0,5 -1,9 -3,13 -2,3 -5,5 -9,5l0 -24z"/>
   <path id="1" class="fil20" d="M83 171c-5,0 -11,7 -11,17 0,5 3,7 6,7 7,0 11,-6 11,-8 0,0 -1,-2 -2,-2 -2,0 -3,1 -3,3 0,1 -3,3 -5,3 -2,0 -3,-1 -3,-4 0,-1 1,-2 1,-3l2 0c8,-2 10,-4 10,-7 0,-2 -2,-6 -6,-6zm0 4c1,0 2,1 2,3 0,0 -1,1 -7,3 0,-3 2,-6 5,-6z"/>
   <path id="2" class="fil20" d="M97 195c1,0 2,-1 3,-3 1,-3 2,-6 4,-10 2,-5 4,-7 4,-9 0,-2 -1,-2 -2,-2 -2,0 -3,1 -3,3 -1,3 -2,4 -3,6 0,2 -1,5 -2,7l-1 -5c-1,-3 -1,-5 -1,-7 0,-1 0,-1 0,-2 0,0 0,-2 -2,-2 -2,0 -3,1 -3,3 0,0 0,0 1,1 0,2 0,6 1,10 1,3 2,6 2,7 0,2 1,3 2,3z"/>
   <path id="3" class="fil20" d="M116 195c2,0 3,-1 3,-3 0,-2 1,-7 2,-11 1,-2 2,-5 3,-8 0,2 1,5 2,7 1,5 2,9 3,11 0,3 0,4 2,4 2,0 3,-1 3,-4 0,-6 2,-12 3,-17 1,-3 2,-7 3,-10 0,-1 0,-2 0,-2 0,-1 -1,-2 -3,-2 -2,0 -2,1 -2,2 0,1 0,1 0,1 0,3 -1,7 -2,10 0,3 -1,8 -2,12 -1,-2 -2,-6 -3,-9 -1,-4 -2,-9 -2,-12 0,-2 0,-3 -2,-3 -2,0 -2,1 -2,3 0,2 -1,6 -2,11 -1,4 -2,7 -3,10 0,-3 -1,-7 -2,-10 0,-4 -1,-7 -1,-10 0,-1 0,-2 0,-2 0,-2 -1,-3 -2,-3 -1,0 -2,1 -2,3 0,5 1,9 2,14 1,4 2,9 2,13 0,4 1,5 2,5z"/>
   <path id="4" class="fil20" d="M151 171c-5,0 -11,7 -11,17 0,5 3,7 6,7 7,0 11,-6 11,-8 0,0 -1,-2 -2,-2 -2,0 -3,1 -3,3 0,1 -3,3 -5,3 -2,0 -2,-1 -2,-4 0,-1 0,-2 0,-3l2 0c9,-2 10,-4 10,-7 0,-2 -1,-6 -6,-6zm0 4c1,0 2,1 2,3 0,0 -1,1 -7,3 0,-3 2,-6 5,-6z"/>
   <path id="5" class="fil20" d="M166 163c0,0 0,-1 0,-1 0,-2 -1,-2 -2,-2 -1,0 -3,0 -3,1 0,1 0,2 0,2l0 28c0,1 -1,1 -1,2 0,2 1,2 3,2 6,0 15,-11 15,-18 0,-4 -2,-6 -4,-6 -3,0 -6,2 -8,5l0 -1 0 -12zm0 17c2,-3 5,-5 6,-5 0,0 1,0 1,2 0,6 -3,11 -7,13l0 -10z"/>
   <path id="6" class="fil20" d="M186 179l8 -1c0,0 1,0 2,0 1,0 2,0 2,-3 0,-1 -1,-2 -2,-2 -1,0 -2,0 -2,1l-8 1 0 -8 9 -2c0,0 1,0 2,0 1,0 2,0 2,-3 0,-1 -1,-2 -2,-2 -1,0 -2,1 -2,1l-9 1c1,-1 0,-1 -1,-1 -2,0 -3,0 -3,2 -1,0 -1,1 -1,2 0,1 1,2 1,2l0 8c0,1 -1,2 -1,3 0,0 0,1 1,2l0 10c-1,0 -1,1 -1,2 0,2 1,3 3,3 2,0 3,-1 3,-3 0,-1 0,-1 -1,-2l0 -11z"/>
   <path id="7" class="fil20" d="M206 174c0,0 0,0 0,-1 0,-1 -1,-2 -2,-2 -2,0 -3,1 -3,2 0,1 1,1 1,1l0 17c0,2 1,4 3,4 2,0 5,-2 7,-4l0 1c-1,0 -1,1 -1,1 0,1 1,1 2,1 3,0 3,0 3,-1 0,-1 0,-1 0,-2l0 -17c0,-2 -1,-3 -3,-3 -1,0 -2,1 -2,2 0,1 0,1 1,1l0 12c-2,2 -4,4 -5,4 -1,0 -1,0 -1,-1l0 -15z"/>
   <path id="8" class="fil20" d="M221 191c0,0 0,1 0,1 0,2 1,2 3,2 1,0 3,-1 3,-2 0,0 -1,-1 -1,-1l0 -27c0,0 1,-1 1,-2 0,-1 -2,-2 -3,-2 -3,0 -3,0 -3,2 0,1 0,2 0,2l0 27z"/>
   <path id="9" class="fil20" d="M231 191c0,0 0,1 0,1 0,2 1,2 3,2 1,0 2,-1 2,-2 0,0 0,-1 0,-1l0 -27c0,0 1,-1 1,-2 0,-1 -2,-2 -3,-2 -3,0 -3,0 -3,2 0,1 0,2 0,2l0 27z"/>
   <path id="10" class="fil20" d="M253 160c-7,0 -13,7 -13,13 0,4 3,6 6,6 1,0 3,0 5,-1 2,-1 4,-1 5,-1 2,0 3,1 3,3 0,2 -1,4 -2,5 -2,4 -6,6 -9,6 -1,0 -2,-1 -3,-2 0,-2 -1,-4 -2,-4 -2,0 -3,2 -3,3 0,2 2,7 8,7 4,0 10,-3 13,-8 2,-2 2,-4 2,-7 0,-5 -2,-7 -6,-7 -2,0 -3,0 -5,1 -3,1 -4,1 -5,1 -1,0 -2,-1 -2,-3 0,-4 4,-8 7,-8 2,0 3,1 3,2 0,1 1,2 3,2 2,0 2,-1 2,-3 0,-2 -3,-5 -7,-5z"/>
   <path id="11" class="fil20" d="M270 171l-2 1c-1,0 -1,-1 -1,-1 -1,0 -2,1 -2,3 0,1 0,2 2,2 0,0 1,0 1,0l2 -1 0 16c0,2 1,4 3,4 4,0 11,-7 11,-9 0,-2 -1,-3 -3,-3 -1,0 -1,1 -1,2 -2,3 -5,5 -5,5 -1,0 -1,0 -1,-1l0 -15 5 -1c0,1 0,1 1,1 1,0 1,-1 1,-3 0,-1 0,-2 -1,-2 -1,0 -1,0 -1,1l-5 0 0 -3c1,0 1,-1 1,-1 0,-2 -2,-2 -2,-2 -2,0 -3,1 -3,2 0,1 0,1 0,1l0 4z"/>
   <path id="12" class="fil20" d="M297 179c-8,2 -13,8 -13,12 0,2 2,4 4,4 3,0 6,-1 9,-5l0 0 0 2c0,0 0,1 0,1 0,1 0,2 2,2 1,0 3,-1 3,-2 0,-1 -1,-1 -1,-1l0 -17c0,-3 -1,-4 -3,-4 -4,0 -7,1 -9,2 -1,0 -2,1 -2,2 0,1 1,3 2,3 2,0 2,-1 2,-2 1,-1 3,-2 5,-2 1,0 1,1 1,2l0 3zm0 5c0,3 -4,7 -7,7 -1,0 -1,0 -1,-1 0,-3 4,-7 8,-8l0 2z"/>
   <path id="13" class="fil20" d="M316 171c-2,0 -6,2 -7,4 -2,4 -3,6 -3,12 0,5 2,8 6,8 3,0 5,-1 7,-3 2,-2 3,-5 3,-6 0,0 0,-2 -2,-2 -1,0 -2,1 -2,3 0,1 -1,2 -2,3 -1,1 -2,1 -3,1 -2,0 -3,-1 -3,-5 0,-3 1,-6 2,-8 2,-2 3,-3 4,-3 1,0 2,0 2,1 0,1 0,1 1,1 2,0 3,-1 3,-2 0,-2 -2,-4 -6,-4z"/>
   <path id="14" class="fil20" d="M331 163c0,0 0,-1 0,-1 0,-1 0,-2 -2,-2 -3,0 -3,1 -3,2 0,0 0,1 0,1l0 27c0,1 0,1 0,2 0,2 1,2 3,2 1,0 2,0 2,-2 0,-1 0,-1 0,-2l0 -7 0 0c1,2 2,3 2,4l4 6c0,1 1,2 2,2 2,0 3,-1 3,-3 0,-1 -1,-1 -2,-1l-6 -9 6 -8c1,0 1,-1 1,-2 0,-1 0,-3 -2,-3 -1,0 -2,1 -2,2l-3 5c-1,1 -2,2 -3,4l0 0 0 -17z"/>
   <path id="15" class="fil20" d="M364 162c0,-1 -1,-2 -2,-2 -3,0 -3,1 -3,3l-7 28c-1,0 -1,0 -1,2 0,1 1,2 3,2 1,0 3,-1 3,-2 0,0 -1,-1 -1,-1l7 -29c0,0 1,-1 1,-1z"/>
   <path id="16" class="fil20" d="M372 190c-2,0 -3,0 -3,1 0,1 2,3 3,3 1,0 2,0 2,-1l12 -8c2,-1 3,-2 3,-3 0,-1 -1,-2 -2,-2l-13 -7c0,-1 -1,-2 -2,-2 -2,0 -3,2 -3,3 0,1 0,2 2,2l12 6 -11 8z"/>
   <g>
    <path class="fil0" d="M351 107c5,-5 12,-7 19,-7 8,0 16,3 21,10 4,6 6,12 6,20l0 17c0,4 -3,7 -7,7l-9 0c-3,0 -6,-3 -6,-7l0 -2 -11 7c-1,1 -3,2 -5,2l-9 0c-3,0 -7,-3 -7,-7l0 -17c0,-3 1,-6 1,-9 -1,0 -1,0 -2,1 -1,3 -2,6 -2,9l0 16c0,4 -3,7 -7,7l-8 0c-2,0 -4,-1 -5,-2 -1,1 -3,2 -5,2l-8 0c-2,0 -4,-1 -5,-2 -1,1 -3,2 -5,2l-15 0c-7,0 -14,-2 -19,-6 -1,-1 -2,-2 -3,-3 0,0 0,0 0,0 -5,6 -13,9 -21,9 -4,0 -9,0 -13,0 -3,-1 -6,-1 -9,-2 -1,0 -2,-1 -3,-2 -1,2 -3,4 -6,4l-8 0c-2,0 -3,-1 -4,-1 -1,1 -2,2 -4,2 -7,0 -14,-2 -19,-7 -2,-1 -3,-3 -4,-5 0,1 -1,2 -1,2 -5,7 -12,10 -21,10 -8,0 -15,-3 -20,-10 -4,-5 -6,-11 -6,-17 0,-7 2,-13 6,-18 4,-7 12,-10 20,-10 7,0 14,2 18,7l0 -16c0,-3 3,-6 7,-6l2 0 0 -28c0,-7 2,-15 8,-21 5,-4 12,-6 19,-6l9 0c0,0 1,0 1,0l0 -9c0,-4 3,-7 6,-7l9 0c4,0 7,3 7,7l0 36c0,2 0,4 1,5l0 -3c0,-7 2,-14 6,-20 2,-2 4,-4 6,-6l0 0c-2,-2 -2,-4 -2,-6 1,-2 2,-4 4,-5l13 -7c3,-1 6,0 8,2l5 6c1,2 2,4 1,6 0,1 -1,2 -2,3 2,1 4,2 6,4 1,-3 3,-6 7,-6l9 0c3,0 6,3 6,7l0 26c2,0 4,0 5,0 1,0 2,0 2,-1 2,-3 2,-6 2,-8l0 -17c0,-4 3,-7 7,-7l7 0c0,-1 0,-2 0,-3 0,-3 1,-6 3,-9 2,-3 5,-4 8,-4 3,0 6,1 9,3 2,2 4,5 4,9 0,3 -1,5 -3,8 2,1 3,3 3,5l0 4c0,-1 1,-2 2,-3 4,-7 12,-10 20,-10 8,0 16,3 21,10 3,5 6,11 6,17 0,7 -3,12 -6,18 -5,7 -13,9 -21,9 -8,0 -16,-2 -20,-9 -1,-1 -2,-2 -2,-3l0 4c0,4 -3,7 -7,7l-9 0c-4,0 -7,-3 -7,-7l0 0c-5,5 -12,7 -19,7 -4,0 -9,0 -13,0 -3,0 -6,-1 -8,-1 -1,1 -3,1 -4,1l-9 0c-4,0 -7,-3 -7,-7l0 -2 -10 7c-2,1 -3,2 -5,2l-9 0c0,0 0,0 0,0 -1,1 -3,1 -4,1 -7,0 -13,-2 -19,-6 -1,-1 -1,-2 -2,-3 0,1 -1,3 -1,4 -2,2 -4,2 -6,2l-12 1 0 4c1,-1 4,-1 6,-1 3,0 6,0 8,2 3,3 4,6 4,9 0,3 0,6 -2,8 0,0 0,0 0,0 1,-2 3,-3 6,-3l9 0c3,0 6,3 6,6l0 27c2,0 4,0 5,0 1,0 2,-1 2,-2 2,-2 2,-5 2,-8l0 -17c0,-3 3,-6 7,-6l9 0c3,0 5,1 6,4 5,-3 10,-4 16,-4l16 0c1,0 1,0 2,0 -1,-1 -1,-3 -1,-4 0,-3 1,-6 3,-8 2,-3 5,-4 9,-4 3,0 6,0 8,2 3,3 4,6 4,9 0,3 0,6 -2,8 1,1 2,3 2,5l0 4c1,-1 1,-2 2,-3 5,-7 12,-10 21,-10 3,0 6,3 6,7l0 0zm-51 13c-1,1 -2,1 -3,1l-1 0c0,1 0,1 0,2l0 7c0,1 0,2 -1,3l2 0c1,0 2,0 3,1l0 -14zm-106 -15c-2,-2 -3,-5 -3,-8 0,0 0,0 0,0 0,0 -1,0 -1,0l-2 0 0 31c0,2 0,3 1,5 1,1 2,1 4,1l0 -25c0,-1 0,-3 1,-4zm17 -44c0,-2 0,-3 0,-4l0 -7 -9 0c-2,0 -3,1 -4,2 -1,1 -1,3 -1,4l0 3 10 1c2,0 3,0 4,1zm54 -8c-1,0 -1,-1 -2,-2 0,-1 -1,-1 -2,-1 -1,0 -2,0 -3,2 -1,2 -1,4 -1,6l8 -5zm105 -3c-1,0 -2,0 -3,1 -1,2 -1,4 -1,6 0,2 0,4 1,6 1,1 2,1 3,1 1,0 2,0 3,-1 1,-2 2,-4 2,-6 0,-2 -1,-4 -2,-6 -1,-1 -2,-1 -3,-1zm-223 71c-1,0 -2,0 -2,1 -1,2 -2,4 -2,6 0,2 1,4 2,5 0,1 1,2 2,2 1,0 2,-1 3,-2 1,-1 2,-3 2,-5 0,-2 -1,-4 -2,-6 -1,-1 -2,-1 -3,-1zm227 3c-1,-1 -1,-2 -1,-2 -1,-1 -2,-1 -3,-1 -1,0 -2,0 -2,1 -1,2 -2,4 -2,7l8 -5z"/>
    <path class="fil16" d="M349 115c1,-1 1,-3 2,-4 5,-6 12,-8 19,-8 8,0 15,2 19,8 4,6 6,12 6,19l0 17c0,2 -2,4 -5,4l-9 0c-2,0 -4,-2 -4,-4l0 -6 -15 9c0,1 -2,1 -3,1l-9 0c-2,0 -4,-2 -4,-4l0 -17c0,-5 0,-9 2,-13 -1,1 -2,2 -3,2 -3,0 -4,0 -5,2 -2,3 -2,6 -2,10l0 16c0,2 -2,4 -5,4l-8 0c-3,0 -5,-2 -5,-4l0 -17c0,-7 2,-13 6,-19 4,-6 11,-8 19,-8 2,0 4,2 4,4l0 7c0,0 0,1 0,1zm-44 -10c-1,0 -1,-1 -1,-1 -2,-2 -4,-4 -4,-7 0,-2 1,-5 3,-7 1,-2 4,-3 7,-3 2,0 5,1 7,2 2,2 3,4 3,7 0,3 -1,5 -2,7 -1,1 -1,1 -2,2 2,0 4,2 4,4l0 38c0,2 -2,4 -5,4l-8 0c-3,0 -5,-2 -5,-4l0 -38c0,-2 1,-3 3,-4zm-42 4c1,0 1,0 1,0 5,-5 11,-6 17,-6l16 0c3,0 5,2 5,4l0 7c0,3 -2,5 -5,5l-6 0c2,0 3,2 3,4l0 7c0,1 -1,2 -2,3 0,1 -1,1 -3,1l-12 0c2,1 3,1 5,1l15 0c3,0 5,2 5,5l0 7c0,2 -2,5 -5,5l-15 0c-7,0 -13,-2 -18,-6 -2,-2 -3,-4 -4,-6 -1,1 -2,2 -2,3 -5,7 -12,9 -19,9 -4,0 -9,0 -13,-1 -3,0 -5,0 -8,-1 -2,0 -4,-2 -4,-4l0 -39c0,-2 2,-4 5,-4l9 0c2,0 4,2 4,4l0 29c2,0 5,0 7,0 2,0 3,-1 4,-3 2,-3 3,-6 3,-9l0 -17c0,-2 2,-4 4,-4l9 0c2,0 4,2 4,4l0 2zm-65 -4c0,0 -1,-1 -1,-1 -2,-2 -4,-4 -4,-7 0,-2 1,-5 3,-7 2,-2 4,-3 7,-3 2,0 5,1 7,2 2,2 3,4 3,7 0,3 -1,5 -2,7 -1,1 -1,1 -2,2 2,0 4,2 4,4l0 38c0,2 -2,4 -5,4l-8 0c-2,0 -3,0 -4,-2 -1,2 -2,3 -4,3 -7,0 -13,-1 -18,-6 -2,-2 -4,-5 -5,-8 -1,2 -2,4 -3,6 -4,6 -11,9 -19,9 -7,0 -14,-3 -18,-9 -4,-5 -6,-10 -6,-16 0,-6 2,-12 6,-16 4,-7 11,-9 18,-9 8,0 15,2 19,9 1,0 1,1 2,2l0 -23c0,-2 2,-4 4,-4l5 0 0 -30c0,-7 1,-14 6,-19 5,-4 11,-6 18,-6l9 0c1,0 2,1 3,1l0 -12c0,-3 2,-5 4,-5l9 0c3,0 5,2 5,5l0 36c0,3 0,5 2,7 1,1 2,1 4,2l0 -7c0,-7 1,-13 5,-19 2,-3 5,-5 8,-6l-2 -3c-1,-1 -2,-2 -1,-4 0,-1 1,-2 2,-3l13 -7c2,-1 4,0 6,2l4 6c1,1 1,2 1,4 -1,1 -2,2 -3,2l-3 2c5,1 10,3 13,7 0,1 1,2 1,3l0 -6c0,-3 2,-5 5,-5l9 0c2,0 4,2 4,5l0 28c2,0 5,0 7,0 2,0 3,0 4,-2 2,-3 3,-6 3,-9l0 -17c0,-3 2,-5 4,-5l9 0c1,0 3,1 4,3 0,0 0,0 0,-1 0,0 0,0 -1,0 -2,-2 -3,-5 -3,-7 0,-3 1,-5 2,-7 2,-3 5,-4 7,-4 3,0 5,1 7,3 3,1 4,4 4,7 0,2 -1,5 -3,7 0,0 -1,1 -1,1 2,1 3,2 3,5l0 37c0,3 -2,5 -4,5l-9 0c-2,0 -4,-2 -4,-5l0 -8c-1,1 -2,3 -3,5 -5,6 -12,8 -19,8 -4,0 -9,0 -13,0 -3,0 -5,-1 -8,-1 0,0 -1,-1 -1,-1 -1,1 -2,2 -3,2l-9 0c-2,0 -4,-2 -4,-5l0 -6 -15 9c-1,1 -2,2 -3,2l-9 0c0,0 -1,0 -1,0 -1,0 -2,1 -3,1 -6,0 -12,-2 -17,-6 -6,-5 -7,-12 -7,-19l0 -9c0,0 0,0 0,0l-11 0c-2,0 -4,1 -6,2 -1,2 -2,4 -2,6l0 6 13 0c2,0 4,1 5,3l2 9c0,1 0,2 -1,3 -1,2 -2,2 -4,2l-15 0 0 11c0,1 0,2 -1,3 -1,1 -2,2 -3,2l-5 0 0 33c0,2 1,5 2,6 2,2 4,2 6,2 1,0 1,1 2,1l0 -28c0,-2 1,-3 3,-4zm172 -73c8,0 14,3 19,9 3,5 6,10 6,16 0,6 -3,12 -6,16 -5,7 -11,9 -19,9 -7,0 -14,-2 -19,-9 -3,-4 -5,-10 -5,-16 0,-6 2,-11 5,-16 5,-6 12,-9 19,-9zm-103 22c0,-1 -1,-3 -2,-4 -1,-2 -2,-2 -4,-2 -2,0 -4,1 -5,3 -1,3 -2,6 -2,9l0 2 13 -8zm103 -6c-2,0 -3,0 -4,2 -2,2 -3,5 -3,7 0,3 1,5 3,7 1,2 2,2 4,2 2,0 4,0 5,-2 1,-2 2,-4 2,-7 0,-2 -1,-5 -2,-7 -1,-2 -3,-2 -5,-2zm-223 71c-2,0 -3,0 -4,2 -2,2 -2,4 -2,7 0,2 0,4 2,7 1,1 2,2 4,2 2,0 4,-1 5,-3 1,-2 2,-4 2,-6 0,-3 -1,-5 -2,-7 -1,-2 -3,-2 -5,-2zm229 6c0,-2 -1,-3 -2,-5 -1,-1 -2,-1 -4,-1 -2,0 -3,0 -4,2 -2,3 -3,6 -3,10l0 2 13 -8z"/>
    <path class="fil17" d="M261 117c1,-2 2,-5 4,-7 5,-4 10,-5 16,-5l16 0c1,0 2,1 2,2l0 7c0,2 -1,3 -2,3l-15 0c-2,0 -4,0 -6,1 -1,1 -2,2 -2,3l15 0c2,0 3,1 3,2l0 7c0,0 -1,1 -1,1 -1,1 -1,1 -2,1l-16 0c1,1 1,3 3,4 1,1 4,2 6,2l15 0c1,0 2,1 2,2l0 7c0,1 -1,2 -2,2l-15 0c-6,0 -12,-1 -16,-5 -4,-2 -5,-6 -6,-10 -1,3 -2,5 -4,8 -4,6 -10,8 -17,8 -4,0 -9,0 -13,-1 -2,0 -5,0 -8,-1 -1,0 -1,-1 -1,-2l0 -39c0,-1 1,-2 2,-2l9 0c1,0 2,1 2,2l0 31c0,0 0,0 1,0 1,0 2,0 3,0 1,0 3,0 5,0 3,0 5,-1 7,-4 1,-3 2,-6 2,-10l0 -17c0,-1 1,-2 2,-2l9 0c1,0 2,1 2,2l0 10zm-78 -25l0 36c0,3 1,6 3,8 2,2 4,3 7,3 1,0 1,0 2,0 0,1 0,2 0,2l-1 7c0,1 -1,2 -2,2 -6,0 -12,-1 -16,-5 -5,-5 -6,-11 -6,-18l0 -36c0,-1 1,-2 2,-2l7 0 0 -32c0,-6 1,-13 6,-17 4,-4 10,-5 16,-5l9 0c1,0 2,0 3,1l2 7c0,1 0,1 -1,2 0,1 -1,1 -1,1l-11 0c-3,0 -5,1 -7,3 -2,2 -3,5 -3,7l0 8 15 0c1,0 2,1 2,2l2 8c1,1 0,2 0,2 0,1 -1,1 -2,1l-17 0 0 13c0,1 0,1 -1,2 0,0 -1,0 -1,0l-7 0zm56 -14c0,1 -1,1 -2,1 -6,0 -11,-1 -16,-5 -5,-4 -6,-11 -6,-17l0 -36c0,-1 1,-2 2,-2l9 0c1,0 2,1 2,2l0 36c0,3 1,6 3,8 2,2 5,3 7,3 0,0 1,0 1,0l0 -9c0,-6 1,-12 5,-17 4,-6 10,-8 17,-8 7,0 13,2 17,8 4,5 5,11 5,17l0 17c0,1 -1,2 -2,2l-9 0c-1,0 -2,-1 -2,-2l0 -9 -18 10c-1,1 -1,1 -2,1l-9 0c-1,0 -1,0 -2,0zm30 -49l-14 6c0,0 -1,0 -2,-1l-4 -4c0,-1 0,-2 0,-2 0,-1 0,-2 1,-2l13 -7c1,0 2,0 3,1l4 6c1,0 1,1 1,2 -1,1 -1,1 -2,1zm28 38c0,0 0,0 1,0 1,0 2,0 3,0 1,1 3,1 5,1 3,0 5,-2 6,-4 2,-3 3,-7 3,-10l0 -17c0,-1 1,-2 2,-2l9 0c1,0 2,1 2,2l0 17c0,6 -2,12 -5,17 -4,6 -10,8 -17,8 -4,0 -9,0 -13,0 -2,-1 -5,-1 -8,-2 -1,0 -1,-1 -1,-2l0 -38c0,-1 1,-2 2,-2l9 0c1,0 2,1 2,2l0 30zm33 9l0 -37c0,-2 1,-3 2,-3l9 0c1,0 2,1 2,3l0 37c0,1 -1,2 -2,2l-9 0c-1,0 -2,-1 -2,-2zm5 -58c2,0 4,1 6,2 2,2 2,4 2,6 0,2 0,4 -1,5 -2,2 -4,3 -6,3 -2,0 -4,-1 -5,-2 -2,-1 -3,-3 -3,-5 0,-2 1,-4 2,-6 1,-2 3,-3 5,-3zm35 16c7,0 13,2 17,8 3,5 5,10 5,15 0,6 -2,11 -5,15 -4,6 -10,8 -17,8 -7,0 -13,-2 -17,-8 -3,-4 -5,-9 -5,-15 0,-5 2,-10 5,-15 4,-6 10,-8 17,-8zm-223 71c7,0 13,2 17,8 3,4 5,9 5,15 0,5 -2,10 -5,15 -4,5 -10,8 -17,8 -7,0 -13,-3 -17,-8 -3,-5 -5,-10 -5,-15 0,-6 2,-11 5,-15 4,-6 10,-8 17,-8zm50 42l0 -38c0,-1 1,-2 3,-2l8 0c2,0 3,1 3,2l0 38c0,1 -1,2 -3,2l-8 0c-2,0 -3,-1 -3,-2zm6 -58c2,0 4,1 5,2 2,1 3,3 3,5 0,2 -1,4 -2,6 -1,1 -3,2 -5,2 -2,0 -4,0 -6,-2 -1,-1 -2,-3 -2,-5 0,-2 0,-4 2,-5 1,-2 3,-3 5,-3zm101 58l0 -38c0,-1 1,-2 3,-2l8 0c1,0 2,1 2,2l0 38c0,1 -1,2 -2,2l-8 0c-2,0 -3,-1 -3,-2zm6 -58c2,0 4,1 5,2 2,1 3,3 3,5 0,2 -1,4 -2,6 -1,1 -3,2 -5,2 -2,0 -4,0 -6,-2 -1,-1 -2,-3 -2,-5 0,-2 0,-4 1,-5 2,-2 4,-3 6,-3zm35 27c-4,0 -6,1 -7,4 -2,3 -2,7 -2,11l0 16c0,1 -1,2 -3,2l-8 0c-2,0 -3,-1 -3,-2l0 -17c0,-7 2,-13 5,-18 4,-5 11,-7 18,-7 1,0 2,1 2,2l0 7c0,1 -1,2 -2,2zm34 21l-18 11c-1,1 -1,1 -2,1l-9 0c-1,0 -2,-1 -2,-2l0 -17c0,-7 1,-13 5,-18 4,-5 10,-7 17,-7 7,0 13,2 17,7 4,5 5,11 5,18l0 17c0,1 -1,2 -2,2l-9 0c-1,0 -2,-1 -2,-2l0 -10zm-109 -81c-1,-3 -1,-5 -3,-7 -1,-3 -3,-3 -6,-3 -3,0 -5,1 -7,4 -1,3 -2,7 -2,10l0 6 18 -10zm100 -10c-3,0 -5,1 -6,3 -2,3 -3,5 -3,8 0,3 1,6 3,8 1,3 3,4 6,4 3,0 5,-1 7,-4 1,-2 2,-5 2,-8 0,-3 -1,-5 -2,-8 -2,-2 -4,-3 -7,-3zm-223 70c-3,0 -5,1 -6,4 -2,2 -3,5 -3,8 0,3 1,5 3,8 1,2 3,3 6,3 3,0 5,-1 7,-3 1,-3 2,-5 2,-8 0,-3 -1,-6 -2,-8 -2,-3 -4,-4 -7,-4zm232 10c0,-2 -1,-5 -3,-7 -1,-2 -3,-3 -6,-3 -3,0 -5,1 -6,4 -2,4 -3,7 -3,11l0 6 18 -11z"/>
   </g>
   <path class="fil18" d="M190 66l17 0 2 9 -19 0 0 15 -9 0 0 -33c0,-7 2,-12 5,-15 4,-4 9,-5 15,-5l9 0 3 7 -11 0c-3,0 -6,1 -9,3 -2,2 -3,5 -3,9l0 10z"/>
   <path id="1" class="fil18" d="M238 70l-1 7c-6,0 -11,-1 -14,-5 -4,-3 -6,-8 -6,-15l0 -36 9 0 0 36c0,4 1,8 4,10 2,2 5,3 8,3z"/>
   <path id="2" class="fil18" d="M241 76l0 -17c0,-6 2,-11 5,-16 3,-4 8,-7 15,-7 7,0 12,3 15,7 3,4 5,10 5,16l0 17 -9 0 0 -13 -22 13 0 0 -9 0zm27 -49l-13 5 -4 -4 13 -7 4 6zm4 30c0,-4 -1,-7 -3,-10 -2,-2 -4,-4 -8,-4 -4,0 -7,2 -9,6 -1,3 -2,7 -2,11l0 10 22 -13z"/>
   <path id="3" class="fil18" d="M326 54c0,6 -2,12 -5,16 -3,4 -8,7 -15,7 -6,0 -10,0 -13,-1 -2,0 -5,0 -7,-1l0 -38 9 0 0 32c0,0 1,0 2,0 2,1 4,1 9,1 4,0 7,-2 8,-5 2,-4 3,-7 3,-11l0 -17 9 0 0 17z"/>
   <path id="4" class="fil18" d="M332 76l0 -37 9 0 0 37 -9 0zm3 -55c2,0 3,0 4,1 2,1 2,2 2,4 0,1 0,3 -1,4 -1,1 -2,2 -4,2 -1,0 -3,-1 -4,-2 -1,-1 -2,-2 -2,-3 0,-2 1,-3 2,-5 1,-1 2,-1 3,-1z"/>
   <path id="5" class="fil18" d="M370 36c7,0 12,3 15,8 3,4 5,9 5,13 0,5 -2,9 -5,14 -3,4 -8,7 -15,7 -7,0 -12,-3 -15,-7 -3,-5 -5,-9 -5,-14 0,-4 2,-9 5,-13 3,-5 8,-8 15,-8zm0 7c-4,0 -7,2 -8,5 -2,3 -3,6 -3,9 0,3 1,6 3,9 1,3 4,5 8,5 4,0 7,-2 9,-5 2,-3 2,-6 2,-9 0,-3 0,-6 -2,-9 -2,-3 -5,-5 -9,-5z"/>
   <path id="6" class="fil18" d="M147 107c7,0 12,2 15,7 4,5 5,9 5,14 0,4 -1,9 -5,13 -3,5 -8,7 -15,7 -7,0 -12,-2 -15,-7 -3,-4 -5,-9 -5,-13 0,-5 2,-9 5,-14 3,-5 8,-7 15,-7zm0 7c-4,0 -6,2 -8,5 -2,3 -3,6 -3,9 0,3 1,6 3,9 1,3 4,4 8,4 4,0 7,-1 9,-4 2,-3 3,-6 3,-9 0,-3 -1,-7 -3,-10 -2,-3 -5,-4 -9,-4z"/>
   <path id="7" class="fil18" d="M193 141l-1 7c-6,0 -11,-2 -15,-5 -3,-3 -5,-8 -5,-16l0 -36 9 0 0 37c0,4 1,7 3,9 3,3 6,4 9,4z"/>
   <path id="8" class="fil18" d="M200 147l0 -38 8 0 0 38 -8 0zm3 -56c1,0 3,1 4,2 1,1 2,2 2,3 0,2 -1,3 -2,4 -1,2 -2,2 -3,2 -2,0 -3,0 -4,-1 -1,-1 -2,-2 -2,-4 0,-1 0,-3 1,-4 1,-1 2,-2 4,-2z"/>
   <path id="9" class="fil18" d="M259 125c0,6 -2,11 -5,16 -3,4 -8,6 -15,6 -6,0 -10,0 -12,0 -3,0 -6,-1 -8,-1l0 -39 9 0 0 32c0,0 1,1 2,1 2,0 5,0 9,0 4,0 7,-1 9,-5 1,-3 2,-7 2,-11l0 -17 9 0 0 18z"/>
   <path id="10" class="fil18" d="M270 130c1,3 2,6 4,7 2,2 5,3 8,3l15 0 0 7 -15 0c-6,0 -11,-1 -15,-4 -3,-3 -5,-8 -5,-15 0,-8 1,-13 5,-16 3,-3 8,-5 14,-5l16 0 0 7 -15 0c-2,0 -5,1 -7,2 -2,2 -4,4 -4,7l18 0 0 7 -19 0z"/>
   <path id="11" class="fil18" d="M307 147l0 -38 8 0 0 38 -8 0zm3 -56c1,0 3,1 4,2 1,1 2,2 2,3 0,2 -1,3 -2,4 -1,2 -2,2 -3,2 -2,0 -3,0 -4,-1 -2,-1 -2,-2 -2,-4 0,-1 0,-3 1,-4 1,-1 2,-2 4,-2z"/>
   <path id="12" class="fil18" d="M345 114c-4,0 -7,2 -9,5 -2,4 -3,7 -3,12l0 16 -8 0 0 -17c0,-7 1,-12 4,-16 3,-5 9,-7 16,-7l0 7z"/>
   <path id="13" class="fil18" d="M350 147l0 -17c0,-7 2,-12 5,-16 3,-5 8,-7 15,-7 7,0 12,2 15,7 4,4 5,9 5,16l0 17 -9 0 0 -14 -22 14 0 0 -9 0zm31 -20c0,-3 -1,-7 -3,-9 -2,-3 -4,-4 -8,-4 -4,0 -7,2 -8,5 -2,4 -3,7 -3,12l0 10 22 -14z"/>
  </g>
 </g>
</svg>
